ffmpeg started on 2016-11-30 at 00:27:04
Report written to "Output/x264/results/ffmpeg/old_town_cross_2160p50faster500k.log"
Command line:
Tools/ffmpeg/ffmpeg -benchmark -y -i Input/y4m/old_town_cross_2160p50.y4m -c:v libx264 -preset faster -b:v 500k -an Output/x264/encoded/old_town_cross_2160p50faster500k.mkv
ffmpeg version N-82227-gdb23fde Copyright (c) 2000-2016 the FFmpeg developers
  built with gcc 5.4.0 (Ubuntu 5.4.0-6ubuntu1~16.04.2) 20160609
  configuration: --prefix=/home/jaroslav/ffmpeg_build --pkg-config-flags=--static --extra-cflags=-I/home/jaroslav/ffmpeg_build/include --extra-ldflags=-L/home/jaroslav/ffmpeg_build/lib --bindir=/home/jaroslav/bin --enable-gpl --enable-libass --enable-libfdk-aac --enable-libfreetype --enable-libmp3lame --enable-libopus --enable-libtheora --enable-libvorbis --enable-libvpx --enable-libx264 --enable-libx265 --enable-nvenc --enable-libmfx --enable-libxvid --enable-libgsm --enable-libopencore-amrnb --enable-version3 --enable-nonfree
  libavutil      55. 35.100 / 55. 35.100
  libavcodec     57. 66.101 / 57. 66.101
  libavformat    57. 57.100 / 57. 57.100
  libavdevice    57.  2.100 / 57.  2.100
  libavfilter     6. 66.100 /  6. 66.100
  libswscale      4.  3.100 /  4.  3.100
  libswresample   2.  4.100 /  2.  4.100
  libpostproc    54.  2.100 / 54.  2.100
Input #0, yuv4mpegpipe, from 'Input/y4m/old_town_cross_2160p50.y4m':
  Duration: 00:00:10.00, start: 0.000000, bitrate: 4976642 kb/s
    Stream #0:0: Video: rawvideo (I420 / 0x30323449), yuv420p(progressive), 3840x2160, SAR 1:1 DAR 16:9, 50 fps, 50 tbr, 50 tbn, 50 tbc
[libx264 @ 0x33d4120] using SAR=1/1
[libx264 @ 0x33d4120] using cpu capabilities: MMX2 SSE2Fast SSSE3 SSE4.2 AVX FMA3 AVX2 LZCNT BMI2
[libx264 @ 0x33d4120] profile High, level 5.2
[libx264 @ 0x33d4120] 264 - core 148 - H.264/MPEG-4 AVC codec - Copyleft 2003-2016 - http://www.videolan.org/x264.html - options: cabac=1 ref=2 deblock=1:0:0 analyse=0x3:0x113 me=hex subme=4 psy=1 psy_rd=1.00:0.00 mixed_ref=0 me_range=16 chroma_me=1 trellis=1 8x8dct=1 cqm=0 deadzone=21,11 fast_pskip=1 chroma_qp_offset=0 threads=6 lookahead_threads=1 sliced_threads=0 nr=0 decimate=1 interlaced=0 bluray_compat=0 constrained_intra=0 bframes=3 b_pyramid=2 b_adapt=1 b_bias=0 direct=1 weightb=1 open_gop=0 weightp=1 keyint=250 keyint_min=25 scenecut=40 intra_refresh=0 rc_lookahead=20 rc=abr mbtree=1 bitrate=500 ratetol=1.0 qcomp=0.60 qpmin=0 qpmax=69 qpstep=4 ip_ratio=1.40 aq=1:1.00
Output #0, matroska, to 'Output/x264/encoded/old_town_cross_2160p50faster500k.mkv':
  Metadata:
    encoder         : Lavf57.57.100
    Stream #0:0: Video: h264 (libx264) (H264 / 0x34363248), yuv420p, 3840x2160 [SAR 1:1 DAR 16:9], q=-1--1, 500 kb/s, 50 fps, 1k tbn, 50 tbc
    Metadata:
      encoder         : Lavc57.66.101 libx264
    Side data:
      cpb: bitrate max/min/avg: 0/0/500000 buffer size: 0 vbv_delay: -1
Stream mapping:
  Stream #0:0 -> #0:0 (rawvideo (native) -> h264 (libx264))
Press [q] to stop, [?] for help
frame=   27 fps= 21 q=0.0 size=       0kB time=00:00:00.00 bitrate=N/A speed=   0x    frame=   36 fps= 20 q=64.0 size=       1kB time=00:00:00.06 bitrate=  96.1kbits/s speed=0.0341x    frame=   48 fps= 19 q=67.0 size=       1kB time=00:00:00.30 bitrate=  19.5kbits/s speed=0.121x    frame=   60 fps= 19 q=67.0 size=       1kB time=00:00:00.54 bitrate=  10.8kbits/s speed=0.169x    frame=   72 fps= 18 q=66.0 size=       1kB time=00:00:00.78 bitrate=   7.5kbits/s speed= 0.2x    frame=   84 fps= 18 q=66.0 size=       1kB time=00:00:01.02 bitrate=   5.7kbits/s speed=0.221x    frame=   96 fps= 18 q=65.0 size=       1kB time=00:00:01.26 bitrate=   4.7kbits/s speed=0.237x    frame=  108 fps= 18 q=65.0 size=       1kB time=00:00:01.50 bitrate=   3.9kbits/s speed=0.249x    frame=  120 fps= 18 q=65.0 size=       1kB time=00:00:01.74 bitrate=   3.4kbits/s speed=0.258x    frame=  132 fps= 18 q=64.0 size=       1kB time=00:00:01.98 bitrate=   3.0kbits/s speed=0.266x    frame=  144 fps= 18 q=64.0 size=       1kB time=00:00:02.22 bitrate=   2.6kbits/s speed=0.272x    frame=  156 fps= 18 q=64.0 size=       1kB time=00:00:02.46 bitrate=   2.4kbits/s speed=0.278x    frame=  168 fps= 18 q=64.0 size=       1kB time=00:00:02.70 bitrate=   2.2kbits/s speed=0.282x    frame=  180 fps= 18 q=64.0 size=       1kB time=00:00:02.94 bitrate=   2.0kbits/s speed=0.286x    frame=  192 fps= 17 q=64.0 size=       1kB time=00:00:03.18 bitrate=   1.8kbits/s speed=0.29x    frame=  204 fps= 17 q=64.0 size=       1kB time=00:00:03.42 bitrate=   1.7kbits/s speed=0.293x    frame=  216 fps= 17 q=64.0 size=       1kB time=00:00:03.66 bitrate=   1.6kbits/s speed=0.296x    frame=  227 fps= 18 q=64.0 size=       1kB time=00:00:03.88 bitrate=   1.5kbits/s speed=0.301x    frame=  236 fps= 17 q=64.0 size=       1kB time=00:00:04.06 bitrate=   1.4kbits/s speed=0.299x    frame=  242 fps= 17 q=64.0 size=       1kB time=00:00:04.18 bitrate=   1.4kbits/s speed=0.29x    frame=  245 fps= 16 q=64.0 size=       1kB time=00:00:04.24 bitrate=   1.4kbits/s speed=0.279x    frame=  250 fps= 16 q=64.0 size=       1kB time=00:00:04.34 bitrate=   1.4kbits/s speed=0.275x    frame=  255 fps= 16 q=65.0 size=       1kB time=00:00:04.44 bitrate=   1.3kbits/s speed=0.272x    frame=  260 fps= 15 q=65.0 size=       1kB time=00:00:04.54 bitrate=   1.3kbits/s speed=0.269x    frame=  265 fps= 15 q=65.0 size=       1kB time=00:00:04.64 bitrate=   1.3kbits/s speed=0.265x    frame=  270 fps= 15 q=65.0 size=       1kB time=00:00:04.74 bitrate=   1.2kbits/s speed=0.263x    frame=  275 fps= 15 q=62.0 size=       1kB time=00:00:04.84 bitrate=   1.2kbits/s speed=0.258x    frame=  285 fps= 15 q=66.0 size=     327kB time=00:00:05.04 bitrate= 531.6kbits/s speed=0.262x    frame=  297 fps= 15 q=67.0 size=     327kB time=00:00:05.28 bitrate= 507.5kbits/s speed=0.264x    frame=  309 fps= 15 q=67.0 size=     327kB time=00:00:05.52 bitrate= 485.4kbits/s speed=0.267x    frame=  320 fps= 15 q=67.0 size=     327kB time=00:00:05.74 bitrate= 466.8kbits/s speed=0.271x    frame=  329 fps= 15 q=67.0 size=     327kB time=00:00:05.92 bitrate= 452.6kbits/s speed=0.27x    frame=  341 fps= 15 q=67.0 size=     327kB time=00:00:06.16 bitrate= 435.0kbits/s speed=0.273x    frame=  353 fps= 15 q=67.0 size=     327kB time=00:00:06.40 bitrate= 418.7kbits/s speed=0.275x    frame=  365 fps= 15 q=67.0 size=     327kB time=00:00:06.64 bitrate= 403.5kbits/s speed=0.276x    frame=  376 fps= 15 q=67.0 size=     327kB time=00:00:06.86 bitrate= 390.6kbits/s speed=0.28x    frame=  385 fps= 15 q=67.0 size=     327kB time=00:00:07.04 bitrate= 380.6kbits/s speed=0.279x    frame=  397 fps= 15 q=67.0 size=     327kB time=00:00:07.28 bitrate= 368.1kbits/s speed=0.281x    frame=  409 fps= 15 q=67.0 size=     327kB time=00:00:07.52 bitrate= 356.3kbits/s speed=0.282x    frame=  421 fps= 15 q=67.0 size=     327kB time=00:00:07.76 bitrate= 345.3kbits/s speed=0.284x    frame=  433 fps= 15 q=67.0 size=     327kB time=00:00:08.00 bitrate= 335.0kbits/s speed=0.285x    frame=  445 fps= 15 q=67.0 size=     327kB time=00:00:08.24 bitrate= 325.2kbits/s speed=0.287x    frame=  456 fps= 16 q=67.0 size=     327kB time=00:00:08.46 bitrate= 316.7kbits/s speed=0.289x    frame=  465 fps= 16 q=67.0 size=     327kB time=00:00:08.64 bitrate= 310.1kbits/s speed=0.289x    frame=  476 fps= 16 q=67.0 size=     327kB time=00:00:08.86 bitrate= 302.4kbits/s speed=0.291x    frame=  483 fps= 15 q=67.0 size=     327kB time=00:00:09.00 bitrate= 297.7kbits/s speed=0.286x    frame=  486 fps= 15 q=67.0 size=     327kB time=00:00:09.06 bitrate= 295.8kbits/s speed=0.281x    frame=  491 fps= 15 q=68.0 size=     327kB time=00:00:09.16 bitrate= 292.5kbits/s speed=0.279x    frame=  496 fps= 15 q=68.0 size=     327kB time=00:00:09.26 bitrate= 289.4kbits/s speed=0.277x    frame=  500 fps= 15 q=68.0 size=     327kB time=00:00:09.34 bitrate= 286.9kbits/s speed=0.275x    frame=  500 fps= 14 q=-1.0 Lsize=     709kB time=00:00:09.94 bitrate= 584.6kbits/s speed=0.284x    
video:705kB audio:0kB subtitle:0kB other streams:0kB global headers:0kB muxing overhead: 0.603975%
bench: utime=76.060s
bench: maxrss=1338816kB
[libx264 @ 0x33d4120] frame I:3     Avg QP:51.00  size: 12038
[libx264 @ 0x33d4120] frame P:183   Avg QP:51.00  size:  3013
[libx264 @ 0x33d4120] frame B:314   Avg QP:51.00  size:   426
[libx264 @ 0x33d4120] consecutive B-frames: 16.0%  0.8%  0.0% 83.2%
[libx264 @ 0x33d4120] mb I  I16..4: 76.8% 23.2%  0.0%
[libx264 @ 0x33d4120] mb P  I16..4:  1.5%  0.2%  0.0%  P16..4:  5.0%  0.3%  0.1%  0.0%  0.0%    skip:93.0%
[libx264 @ 0x33d4120] mb B  I16..4:  0.0%  0.0%  0.0%  B16..8:  0.5%  0.0%  0.0%  direct: 0.0%  skip:99.5%  L0:35.9% L1:64.1% BI: 0.0%
[libx264 @ 0x33d4120] final ratefactor: 59.42
[libx264 @ 0x33d4120] 8x8 transform intra:18.8% inter:99.8%
[libx264 @ 0x33d4120] coded y,uvDC,uvAC intra: 1.4% 4.4% 0.0% inter: 0.0% 0.0% 0.0%
[libx264 @ 0x33d4120] i16 v,h,dc,p: 89% 10%  1%  0%
[libx264 @ 0x33d4120] i8 v,h,dc,ddl,ddr,vr,hd,vl,hu: 11% 14% 67%  1%  1%  1%  2%  1%  3%
[libx264 @ 0x33d4120] i8c dc,h,v,p: 100%  0%  0%  0%
[libx264 @ 0x33d4120] Weighted P-Frames: Y:0.5% UV:0.0%
[libx264 @ 0x33d4120] ref P L0: 66.8% 33.2%
[libx264 @ 0x33d4120] ref B L0: 79.0% 21.0%
[libx264 @ 0x33d4120] ref B L1: 91.2%  8.8%
[libx264 @ 0x33d4120] kb/s:577.09
